<?xml version="1.0" encoding="UTF-8" standalone="no"?>
<svg
   xmlns:dc="http://purl.org/dc/elements/1.1/"
   xmlns:cc="http://creativecommons.org/ns#"
   xmlns:rdf="http://www.w3.org/1999/02/22-rdf-syntax-ns#"
   xmlns:svg="http://www.w3.org/2000/svg"
   xmlns="http://www.w3.org/2000/svg"
   xmlns:sodipodi="http://sodipodi.sourceforge.net/DTD/sodipodi-0.dtd"
   xmlns:inkscape="http://www.inkscape.org/namespaces/inkscape"
   width="750"
   height="200"
   viewBox="0 0 0 0 750 0 200"
   version="1.1"
   id="svg14"
   sodipodi:docname="logo.svg"
   inkscape:version="0.92.3 (2405546, 2018-03-11)">
  <metadata
     id="metadata20">
    <rdf:RDF>
      <cc:Work
         rdf:about="">
        <dc:format>image/svg+xml</dc:format>
        <dc:type
           rdf:resource="http://purl.org/dc/dcmitype/StillImage" />
        <dc:title></dc:title>
      </cc:Work>
    </rdf:RDF>
  </metadata>
  <defs
     id="defs18" />
  <sodipodi:namedview
     pagecolor="#ffffff"
     bordercolor="#666666"
     borderopacity="1"
     objecttolerance="10"
     gridtolerance="10"
     guidetolerance="10"
     inkscape:pageopacity="0"
     inkscape:pageshadow="2"
     inkscape:window-width="1289"
     inkscape:window-height="628"
     id="namedview16"
     showgrid="false"
     inkscape:zoom="3.776"
     inkscape:cx="72.303782"
     inkscape:cy="16.23627"
     inkscape:window-x="0"
     inkscape:window-y="27"
     inkscape:window-maximized="0"
     inkscape:current-layer="svg14" />
  <g
     id="Layer_1"
     style="fill:#c8c8c8;fill-opacity:1"
     transform="matrix(0.19762738,0,0,0.19762738,-1.4622679,161.95444)">
    <path
       d="m 258.761,58.796 -7.8,16.109 c -8.614,-4.983 -19.44,-8.46 -26.075,-8.46 -5.355,0 -8.963,1.97 -8.963,5.911 0,14.023 43.07,6.026 43.07,35.348 0,16.226 -14.434,24.802 -32.594,24.802 -13.619,0 -27.589,-5.1 -37.25,-12.981 l 8.032,-15.878 c 8.381,7.302 20.953,12.17 29.451,12.17 6.519,0 10.593,-2.434 10.593,-7.07 0,-14.371 -43.071,-5.795 -43.071,-34.537 0,-14.951 12.922,-24.454 32.478,-24.454 11.757,0 23.748,3.592 32.129,9.04"
       id="Fill-1"
       style="fill:#c8c8c8;fill-opacity:1"
       inkscape:connector-curvature="0" />
    <path
       d="m 324.88,82.671 -14.435,8.692 c -2.91,-4.057 -7.217,-6.491 -12.688,-6.491 -7.8,0 -13.154,6.375 -13.154,15.762 0,9.62 5.354,15.878 13.154,15.878 5.703,0 10.127,-2.318 12.805,-7.069 l 14.667,8.576 c -5.122,9.156 -15.25,14.487 -28.52,14.487 -19.324,0 -32.361,-12.749 -32.361,-31.756 0,-19.239 13.154,-32.103 32.594,-32.103 12.455,0 22.467,5.099 27.938,14.024"
       id="Fill-4"
       style="fill:#c8c8c8;fill-opacity:1"
       inkscape:connector-curvature="0" />
    <path
       d="m 368.999,110.601 v -5.562 h -12.688 c -6.054,0 -9.08,2.086 -9.08,6.721 0,4.52 3.259,7.418 8.846,7.418 6.287,0 11.641,-3.477 12.922,-8.577 m 19.789,-19.586 v 40.796 h -19.672 v -7.186 c -4.075,5.331 -10.71,8.113 -19.208,8.113 -13.387,0 -21.535,-8.113 -21.535,-19.587 0,-11.821 8.497,-18.775 24.096,-18.891 h 16.53 v -0.927 c 0,-6.142 -4.075,-9.851 -12.223,-9.851 -5.239,0 -12.106,1.854 -18.742,5.215 l -5.703,-13.212 c 9.778,-4.52 18.625,-7.07 29.102,-7.07 17.228,0 27.239,8.46 27.355,22.6"
       id="Fill-6"
       style="fill:#c8c8c8;fill-opacity:1"
       inkscape:connector-curvature="0" />
    <path
       d="m 403.105,131.811 h 20.139 V 45.816 h -20.139 z"
       id="Fill-8"
       style="fill:#c8c8c8;fill-opacity:1"
       inkscape:connector-curvature="0" />
    <path
       d="m 479.12,95.187 c 0,-7.649 -4.889,-12.632 -12.106,-12.632 -6.985,0 -11.758,5.099 -13.038,12.632 z m 19.323,10.779 h -44.118 c 1.978,7.417 7.333,11.589 14.783,11.589 5.472,0 10.826,-2.202 15.017,-6.374 l 10.593,10.315 c -6.402,6.953 -15.831,11.01 -27.356,11.01 -20.487,0 -33.292,-12.749 -33.292,-31.756 0,-19.354 13.27,-32.103 32.71,-32.103 22.118,0 33.06,14.487 31.663,37.319 z"
       id="Fill-10"
       style="fill:#c8c8c8;fill-opacity:1"
       inkscape:connector-curvature="0" />
    <path
       d="m 565.727,131.811 -12.339,-39.637 -12.34,39.637 H 521.026 L 498.094,69.342 h 20.488 l 12.921,43.23 12.572,-43.23 h 19.208 l 12.921,43.23 12.688,-43.23 h 19.673 l -22.932,62.469 z"
       id="Fill-11"
       style="fill:#c8c8c8;fill-opacity:1"
       inkscape:connector-curvature="0" />
    <path
       d="m 648.958,110.601 v -5.562 H 636.27 c -6.053,0 -9.08,2.086 -9.08,6.721 0,4.52 3.259,7.418 8.847,7.418 6.286,0 11.641,-3.477 12.921,-8.577 m 19.789,-19.586 v 40.796 h -19.672 v -7.186 c -4.074,5.331 -10.71,8.113 -19.208,8.113 -13.387,0 -21.535,-8.113 -21.535,-19.587 0,-11.821 8.497,-18.775 24.096,-18.891 h 16.53 v -0.927 c 0,-6.142 -4.074,-9.851 -12.223,-9.851 -5.238,0 -12.106,1.854 -18.741,5.215 L 612.29,75.485 c 9.778,-4.52 18.625,-7.07 29.102,-7.07 17.228,0 27.239,8.46 27.355,22.6"
       id="Fill-12"
       style="fill:#c8c8c8;fill-opacity:1"
       inkscape:connector-curvature="0" />
    <path
       d="m 714.728,138.301 c -4.656,11.358 -12.572,16.921 -24.212,16.921 -6.985,0 -12.689,-2.086 -18.276,-6.375 l 8.381,-13.676 c 2.91,2.319 5.355,3.361 8.265,3.361 3.608,0 6.169,-1.622 7.799,-4.983 l 1.513,-3.129 -26.075,-61.078 h 20.72 l 15.366,41.491 13.62,-41.491 h 20.023 z"
       id="Fill-13"
       style="fill:#c8c8c8;fill-opacity:1"
       inkscape:connector-curvature="0" />
    <path
       d="m 38.926,65.732 v 19.393 a 3.043,3.043 0 0 0 3.039,3.041 3.044,3.044 0 0 0 3.039,-3.041 L 45.01,44.121 c 0.278,-3.249 3.051,-5.794 6.313,-5.794 l 37.51,-0.011 h 2.979 A 3.045,3.045 0 0 0 94.85,35.273 3.043,3.043 0 0 0 91.812,32.234 H 41.001 a 1.947,1.947 0 0 1 -0.108,0.003 c -0.997,0 -1.846,0.762 -1.958,1.745 v 31.49 c 0,0.103 -0.004,0.181 -0.009,0.259 z m 3.039,25.731 c -3.493,0 -6.335,-2.844 -6.335,-6.338 l 0.002,-19.526 0.007,-0.125 V 33.835 l 0.006,-0.068 c 0.223,-2.679 2.483,-4.782 5.163,-4.826 0.039,-0.002 0.078,-0.004 0.117,-0.004 h 50.887 a 6.343,6.343 0 0 1 6.335,6.336 c 0,3.496 -2.842,6.339 -6.335,6.339 H 88.834 L 51.323,41.624 A 3.06,3.06 0 0 0 48.3,44.34 v 40.785 c 0,3.494 -2.842,6.338 -6.335,6.338 z m 18.239,-4.46 v 19.402 a 3.046,3.046 0 0 0 3.045,3.041 3.042,3.042 0 0 0 3.036,-3.04 L 66.29,65.404 c 0.271,-3.211 2.98,-5.735 6.193,-5.795 l 0.011,-0.002 0.19,-0.011 h 40.406 a 3.045,3.045 0 0 0 3.041,-3.042 3.045,3.045 0 0 0 -3.041,-3.042 H 62.76 l -0.586,0.006 a 1.967,1.967 0 0 0 -1.964,1.748 v 31.486 c 0,0.099 -0.002,0.175 -0.006,0.251 z m 3.045,25.74 a 6.347,6.347 0 0 1 -6.341,-6.338 l 10e-4,-19.522 c 0.003,-0.049 0.005,-0.078 0.005,-0.108 V 55.113 l 0.006,-0.072 a 5.243,5.243 0 0 1 4.677,-4.789 l 0.049,-0.037 h 51.444 a 6.346,6.346 0 0 1 6.338,6.339 6.346,6.346 0 0 1 -6.338,6.339 H 72.805 c -0.06,0.007 -0.128,0.011 -0.204,0.011 a 3.054,3.054 0 0 0 -3.02,2.716 v 40.786 c 0,3.494 -2.841,6.337 -6.332,6.337 z m -12.992,27.552 c -1.706,0 -3.071,1.363 -3.071,3.039 a 3.047,3.047 0 0 0 3.042,3.046 h 19.415 c 0.069,-0.006 0.134,-0.01 0.199,-0.01 l 31.1,0.003 c 0.059,-0.006 0.126,-0.011 0.199,-0.011 a 1.99,1.99 0 0 0 1.966,-1.745 l -0.003,-31.514 0.002,-0.13 0.001,-0.035 V 93.487 a 3.042,3.042 0 0 0 -3.035,-3.042 3.047,3.047 0 0 0 -3.045,3.042 v 40.93 l -0.006,0.068 c -0.267,3.207 -2.967,5.728 -6.177,5.796 l -0.064,0.007 -0.153,0.007 z m 19.54,9.382 H 50.228 c -3.495,0 -6.338,-2.845 -6.338,-6.343 a 6.344,6.344 0 0 1 6.338,-6.336 h 40.268 c 0.064,-0.007 0.135,-0.012 0.215,-0.012 a 3.048,3.048 0 0 0 3.019,-2.713 V 93.516 c 0,-3.524 2.845,-6.367 6.342,-6.367 3.491,0 6.332,2.843 6.332,6.338 v 19.452 l -0.002,0.112 0.002,0.079 v 31.641 l -0.007,0.071 a 5.243,5.243 0 0 1 -5.111,4.815 l -0.088,0.013 z m 1.66,12.01 a 3.044,3.044 0 0 0 0.117,6.083 h 19.432 c 0.058,-0.004 0.116,-0.006 0.181,-0.006 h 31.099 c 0.066,-0.008 0.133,-0.012 0.2,-0.012 a 1.98,1.98 0 0 0 1.96,-1.742 v -31.491 c 0,-0.1 0.003,-0.184 0.01,-0.266 v -19.375 a 3.046,3.046 0 0 0 -3.042,-3.044 3.046,3.046 0 0 0 -3.041,2.981 l 0.002,0.095 v 40.901 l -0.006,0.07 c -0.274,3.191 -2.955,5.703 -6.143,5.789 l -0.089,0.019 z m 19.473,6.089 0.141,1.643 z m 0.141,3.291 H 71.574 c -3.494,0 -6.336,-2.845 -6.336,-6.341 a 6.344,6.344 0 0 1 6.336,-6.338 l 40.242,0.004 c 0.071,-0.01 0.151,-0.016 0.24,-0.016 a 3.058,3.058 0 0 0 3.023,-2.714 v -40.68 a 6.346,6.346 0 0 1 6.335,-6.445 6.346,6.346 0 0 1 6.338,6.341 v 19.549 l -0.01,0.094 10e-4,31.637 -0.006,0.069 c -0.221,2.656 -2.451,4.747 -5.108,4.82 l -0.208,0.013 H 91.22 Z"
       id="path10"
       style="fill:#c8c8c8;fill-opacity:1"
       inkscape:connector-curvature="0" />
    <path
       d="m 14.741,36.607 v 86.754 c 0,34.143 27.774,61.919 61.912,61.919 h 50.55 l 1.196,-0.045 a 21.142,21.142 0 0 0 20.383,-21.061 l 0.004,-0.673 V 76.64 c 0,-34.143 -27.774,-61.92 -61.912,-61.92 H 37.292 l -1.266,0.003 A 3.47,3.47 0 0 1 35.881,14.72 21.056,21.056 0 0 0 21.119,20.78 21.112,21.112 0 0 0 14.766,35.464 Z M 129.908,191.874 H 76.653 c -18.297,0 -35.5,-7.127 -48.439,-20.067 C 15.275,158.867 8.148,141.662 8.148,123.361 v -89.32 l 0.09,-0.089 c 0.476,-6.781 3.381,-13.086 8.264,-17.879 4.933,-4.84 11.369,-7.627 18.235,-7.92 L 34.762,8.13 35.757,8.127 c 0.073,0 0.148,-0.003 0.22,0 h 50.897 c 18.299,0 35.502,7.126 48.44,20.066 12.939,12.941 20.064,30.146 20.064,48.447 v 88.352 l -0.019,0.037 c -0.475,14.075 -11.346,25.489 -25.323,26.708 z"
       id="Fill-3"
       style="fill:#c8c8c8;fill-opacity:1"
       inkscape:connector-curvature="0" />
  </g>
</svg>
